<svg xmlns="http://www.w3.org/2000/svg" xmlns:xlink="http://www.w3.org/1999/xlink" width="2048" zoomAndPan="magnify" viewBox="0 0 1536 1535.999932" height="2048" preserveAspectRatio="xMidYMid meet" version="1.0"><defs><clipPath id="24d27a337a"><path d="M 59.195312 296.542969 L 1496.945312 296.542969 L 1496.945312 1336.789062 L 59.195312 1336.789062 Z M 59.195312 296.542969 " clip-rule="nonzero"/></clipPath><clipPath id="50898f960c"><path d="M 820 0.542969 L 1437.769531 0.542969 L 1437.769531 402 L 820 402 Z M 820 0.542969 " clip-rule="nonzero"/></clipPath><clipPath id="03438e7128"><path d="M 0.195312 323 L 17 323 L 17 354 L 0.195312 354 Z M 0.195312 323 " clip-rule="nonzero"/></clipPath><clipPath id="78f832e867"><path d="M 87 1016 L 116 1016 L 116 1040.789062 L 87 1040.789062 Z M 87 1016 " clip-rule="nonzero"/></clipPath><clipPath id="563ecfc82c"><rect x="0" width="1438" y="0" height="1041"/></clipPath></defs><rect x="-153.6" width="1843.2" fill="#ffffff" y="-153.599993" height="1843.199919" fill-opacity="1"/><rect x="-153.6" width="1843.2" fill="#ffffff" y="-153.599993" height="1843.199919" fill-opacity="1"/><g clip-path="url(#24d27a337a)"><g transform="matrix(1, 0, 0, 1, 59, 296)"><g clip-path="url(#563ecfc82c)"><g clip-path="url(#50898f960c)"><path fill="#2b2326" d="M 822.386719 132.933594 C 822.992188 130.699219 824.867188 128.886719 827.222656 128.40625 L 1429.828125 0.601562 L 1430.253906 0.601562 C 1430.253906 0.542969 1430.3125 0.542969 1430.3125 0.542969 C 1430.433594 0.542969 1430.554688 0.542969 1430.734375 0.542969 L 1431.097656 0.542969 C 1431.21875 0.542969 1431.398438 0.542969 1431.519531 0.542969 C 1431.640625 0.542969 1431.824219 0.542969 1431.882812 0.542969 C 1431.882812 0.542969 1432.003906 0.542969 1432.066406 0.542969 L 1432.667969 0.660156 C 1432.789062 0.660156 1432.910156 0.722656 1433.09375 0.78125 C 1433.273438 0.78125 1433.394531 0.902344 1433.574219 0.964844 C 1433.757812 1.023438 1433.9375 1.144531 1434.121094 1.207031 C 1434.121094 1.207031 1434.179688 1.207031 1434.238281 1.207031 L 1437.441406 6.039062 C 1437.441406 6.039062 1437.441406 6.460938 1437.441406 6.460938 L 1437.441406 7.609375 C 1437.382812 7.730469 1437.320312 7.789062 1437.320312 7.847656 C 1437.320312 8.03125 1437.320312 8.152344 1437.261719 8.273438 L 1437.261719 8.453125 C 1437.199219 8.515625 1437.140625 8.632812 1437.140625 8.695312 L 1437.140625 9.179688 L 1436.355469 10.203125 L 1436.171875 10.507812 L 1435.992188 10.6875 L 1191.601562 342.460938 C 1190.394531 344.089844 1188.519531 345.054688 1186.464844 345.054688 C 1184.414062 345.054688 1184.292969 344.753906 1183.324219 344.210938 L 1093.90625 293.234375 L 964.792969 399.839844 L 964.550781 400.019531 L 964.308594 400.140625 C 964.1875 400.199219 964.128906 400.261719 964.007812 400.382812 L 963.707031 400.5625 C 963.464844 400.683594 963.164062 400.863281 962.859375 400.925781 L 962.496094 401.046875 C 962.316406 401.105469 962.136719 401.167969 961.953125 401.167969 L 961.589844 401.167969 C 961.46875 401.289062 961.289062 401.289062 961.109375 401.289062 L 960.625 401.289062 C 960.441406 401.289062 960.261719 401.289062 960.082031 401.289062 L 958.207031 400.804688 L 958.148438 400.804688 C 958.148438 400.804688 955.1875 398.148438 955.1875 398.148438 C 955.1875 398.148438 955.1875 398.148438 955.1875 398.085938 C 955.1875 397.964844 955.066406 397.84375 955.003906 397.722656 C 954.886719 397.484375 954.824219 397.242188 954.703125 397 L 954.582031 396.636719 C 954.523438 396.394531 954.460938 396.152344 954.460938 395.972656 L 954.460938 395.792969 C 954.460938 395.792969 938.8125 204.6875 938.8125 204.6875 L 825.410156 140.003906 C 823.355469 138.792969 822.085938 136.558594 822.207031 134.203125 L 820.457031 133.238281 L 822.386719 132.816406 Z M 1184.714844 330.5625 L 1404.996094 31.527344 L 1058.804688 258.6875 L 1184.714844 330.5 Z M 1082.125 286.652344 L 1048.773438 267.625 L 987.269531 364.988281 L 1082.125 286.710938 Z M 965.457031 375.679688 L 1041.222656 255.726562 L 1041.464844 255.363281 L 1041.585938 255.242188 C 1041.707031 255.0625 1041.828125 254.878906 1042.007812 254.761719 L 1042.25 254.519531 C 1042.550781 254.214844 1042.851562 254.035156 1043.15625 253.792969 L 1374.910156 36.117188 L 951.5 205.171875 L 965.457031 375.738281 Z M 945.277344 193.9375 L 1359.867188 28.386719 L 846.132812 137.34375 Z M 945.277344 193.9375 " fill-opacity="1" fill-rule="nonzero"/></g><path fill="#2b2326" d="M 890.84375 440.910156 C 890.960938 438.917969 891.808594 437.105469 893.320312 435.773438 L 904.496094 425.386719 C 905.945312 423.996094 907.757812 423.273438 909.753906 423.332031 C 911.746094 423.332031 913.621094 424.179688 915.070312 425.628906 C 917.910156 428.589844 917.847656 433.359375 914.949219 436.257812 L 906.371094 444.292969 L 903.410156 447.007812 C 901.957031 448.277344 900.207031 448.941406 898.394531 448.941406 C 896.582031 448.941406 894.285156 448.097656 892.773438 446.464844 C 891.445312 444.957031 890.722656 443.023438 890.84375 441.03125 Z M 890.84375 440.910156 " fill-opacity="1" fill-rule="nonzero"/><path fill="#2b2326" d="M 868.488281 466.820312 C 865.890625 463.621094 866.371094 458.90625 869.515625 456.3125 C 870.179688 455.765625 870.902344 455.164062 871.628906 454.621094 C 872.898438 453.59375 874.167969 452.566406 875.433594 451.480469 L 881.296875 446.464844 C 884.4375 443.808594 889.148438 444.171875 891.867188 447.25 C 893.199219 448.761719 893.863281 450.695312 893.679688 452.746094 C 893.5625 454.742188 892.59375 456.550781 891.082031 457.882812 L 885.164062 462.953125 C 883.894531 464.042969 882.566406 465.128906 881.234375 466.214844 C 880.511719 466.820312 879.847656 467.363281 879.121094 467.96875 C 877.792969 469.054688 876.101562 469.660156 874.40625 469.660156 C 872.714844 469.660156 873.863281 469.660156 873.621094 469.660156 C 871.628906 469.476562 869.816406 468.453125 868.546875 466.941406 Z M 868.488281 466.820312 " fill-opacity="1" fill-rule="nonzero"/><path fill="#2b2326" d="M 844.683594 475.636719 L 853.867188 468.753906 L 856.886719 466.398438 C 860.148438 463.859375 864.863281 464.464844 867.398438 467.726562 C 868.609375 469.296875 869.210938 471.289062 868.96875 473.28125 C 868.730469 475.277344 867.703125 477.027344 866.132812 478.296875 L 862.988281 480.773438 L 853.683594 487.777344 C 852.355469 488.746094 850.84375 489.289062 849.214844 489.289062 C 847.582031 489.289062 848.488281 489.289062 848.125 489.226562 C 846.132812 488.925781 844.378906 487.839844 843.171875 486.207031 C 840.753906 482.886719 841.480469 478.234375 844.742188 475.757812 Z M 844.683594 475.636719 " fill-opacity="1" fill-rule="nonzero"/><path fill="#2b2326" d="M 815.804688 498.289062 C 816.226562 496.355469 817.375 494.664062 819.003906 493.578125 C 820.515625 492.609375 821.964844 491.582031 823.535156 490.558594 C 824.140625 490.132812 824.746094 489.773438 825.289062 489.347656 L 831.632812 485 C 835.015625 482.644531 839.667969 483.492188 842.023438 486.8125 C 843.171875 488.441406 843.65625 490.496094 843.292969 492.488281 C 842.929688 494.484375 841.84375 496.175781 840.152344 497.320312 L 833.746094 501.730469 C 833.144531 502.152344 832.597656 502.515625 831.996094 502.9375 C 830.425781 504.027344 828.851562 505.113281 827.222656 506.140625 C 825.953125 506.984375 824.5625 507.347656 823.113281 507.347656 C 820.636719 507.347656 818.28125 506.140625 816.832031 503.964844 C 815.742188 502.273438 815.320312 500.28125 815.742188 498.289062 Z M 815.804688 498.289062 " fill-opacity="1" fill-rule="nonzero"/><path fill="#2b2326" d="M 792.359375 510.246094 L 798.886719 506.382812 L 805.410156 502.335938 C 808.914062 500.160156 813.507812 501.246094 815.742188 504.691406 C 816.832031 506.382812 817.191406 508.433594 816.710938 510.367188 C 816.285156 512.300781 815.078125 513.992188 813.386719 515.078125 L 806.742188 519.246094 L 800.035156 523.234375 C 798.886719 523.957031 797.558594 524.261719 796.226562 524.261719 C 794.898438 524.261719 794.957031 524.199219 794.355469 524.019531 C 792.421875 523.535156 790.789062 522.265625 789.761719 520.515625 C 787.707031 516.953125 788.855469 512.359375 792.359375 510.246094 Z M 792.359375 510.246094 " fill-opacity="1" fill-rule="nonzero"/><path fill="#2b2326" d="M 764.871094 525.648438 L 775.019531 520.214844 L 778.34375 518.339844 C 781.910156 516.289062 786.5 517.617188 788.554688 521.179688 C 789.519531 522.929688 789.761719 524.925781 789.28125 526.855469 C 788.734375 528.789062 787.46875 530.421875 785.714844 531.386719 L 782.269531 533.320312 L 772.058594 538.816406 C 770.972656 539.417969 769.765625 539.722656 768.496094 539.722656 C 767.226562 539.722656 767.046875 539.601562 766.320312 539.417969 C 764.386719 538.816406 762.757812 537.488281 761.851562 535.675781 C 759.917969 531.992188 761.304688 527.582031 764.929688 525.589844 Z M 764.871094 525.648438 " fill-opacity="1" fill-rule="nonzero"/><path fill="#2b2326" d="M 732.910156 543.769531 C 733.574219 541.894531 734.964844 540.386719 736.835938 539.539062 C 738.953125 538.574219 741.125 537.488281 743.242188 536.460938 L 750.613281 532.898438 C 754.359375 531.144531 758.707031 532.65625 760.582031 536.277344 C 761.488281 538.089844 761.609375 540.203125 760.945312 542.136719 C 760.277344 544.070312 758.949219 545.582031 757.136719 546.425781 L 749.707031 550.050781 C 747.53125 551.136719 745.296875 552.222656 743 553.191406 C 741.972656 553.675781 740.945312 553.855469 739.859375 553.855469 C 737.019531 553.855469 734.300781 552.222656 733.03125 549.445312 C 732.183594 547.632812 732.125 545.582031 732.789062 543.707031 Z M 732.910156 543.769531 " fill-opacity="1" fill-rule="nonzero"/><path fill="#2b2326" d="M 707.957031 552.105469 L 715.027344 549.203125 L 722.035156 546.183594 C 725.78125 544.554688 730.25 546.304688 731.882812 550.050781 C 732.667969 551.863281 732.730469 553.914062 732.003906 555.789062 C 731.277344 557.660156 729.828125 559.109375 728.015625 559.957031 L 720.886719 563.035156 L 713.574219 565.996094 C 712.667969 566.359375 711.703125 566.539062 710.738281 566.539062 C 709.769531 566.539062 708.742188 566.359375 707.835938 565.933594 C 705.964844 565.148438 704.574219 563.699219 703.789062 561.828125 C 702.277344 558.023438 704.089844 553.613281 707.898438 552.042969 Z M 707.957031 552.105469 " fill-opacity="1" fill-rule="nonzero"/><path fill="#2b2326" d="M 678.535156 563.21875 L 686.691406 560.257812 C 688.746094 559.53125 690.859375 558.746094 692.914062 557.960938 C 694.785156 557.238281 696.839844 557.296875 698.652344 558.144531 C 700.464844 558.988281 701.855469 560.4375 702.578125 562.3125 C 704.089844 566.175781 702.097656 570.523438 698.289062 571.976562 C 696.117188 572.820312 693.878906 573.667969 691.703125 574.390625 L 683.609375 577.289062 C 682.761719 577.59375 681.917969 577.773438 681.070312 577.773438 C 680.226562 577.773438 678.894531 577.53125 677.867188 577.046875 C 676.054688 576.203125 674.605469 574.570312 674.003906 572.699219 C 672.671875 568.773438 674.667969 564.605469 678.535156 563.21875 Z M 678.535156 563.21875 " fill-opacity="1" fill-rule="nonzero"/><path fill="#2b2326" d="M 648.6875 572.820312 L 652.3125 571.734375 L 663.308594 568.289062 C 667.234375 567.082031 671.40625 569.257812 672.671875 573.121094 C 673.277344 575.054688 673.097656 577.167969 672.191406 578.921875 C 671.285156 580.734375 669.710938 582 667.777344 582.605469 L 656.664062 586.109375 L 652.855469 587.195312 C 652.191406 587.375 651.464844 587.496094 650.742188 587.496094 C 649.472656 587.496094 648.265625 587.195312 647.117188 586.53125 C 645.363281 585.566406 644.09375 583.996094 643.550781 582.0625 C 642.402344 578.074219 644.699219 573.90625 648.625 572.761719 Z M 648.6875 572.820312 " fill-opacity="1" fill-rule="nonzero"/><path fill="#2b2326" d="M 618.296875 580.914062 L 625.730469 579.101562 C 627.300781 578.679688 628.871094 578.257812 630.441406 577.832031 C 631.347656 577.59375 632.191406 577.351562 633.097656 577.109375 C 637.085938 576.023438 641.195312 578.4375 642.28125 582.425781 C 642.828125 584.355469 642.523438 586.410156 641.558594 588.160156 C 640.53125 589.914062 638.960938 591.121094 636.964844 591.664062 C 636.058594 591.90625 635.214844 592.148438 634.308594 592.390625 C 632.675781 592.8125 631.046875 593.234375 629.355469 593.71875 L 621.800781 595.53125 C 621.199219 595.652344 620.59375 595.773438 619.988281 595.773438 C 618.597656 595.773438 617.269531 595.410156 616.0625 594.683594 C 614.371094 593.65625 613.160156 591.96875 612.679688 590.035156 C 611.710938 586.046875 614.1875 581.941406 618.175781 580.972656 Z M 618.296875 580.914062 " fill-opacity="1" fill-rule="nonzero"/><path fill="#2b2326" d="M 587.542969 587.496094 L 595.035156 585.988281 C 595.820312 585.804688 596.546875 585.683594 597.332031 585.566406 C 599.085938 585.203125 600.777344 584.898438 602.527344 584.476562 C 604.460938 584.054688 606.457031 584.417969 608.148438 585.503906 C 609.839844 586.589844 610.988281 588.28125 611.46875 590.214844 C 612.375 594.261719 609.777344 598.25 605.789062 599.15625 C 603.917969 599.578125 602.105469 599.941406 600.292969 600.300781 C 599.566406 600.421875 598.78125 600.605469 598.058594 600.726562 L 590.382812 602.234375 C 589.902344 602.296875 589.476562 602.355469 588.996094 602.355469 C 587.484375 602.355469 586.035156 601.933594 584.765625 601.027344 C 583.074219 599.878906 581.984375 598.128906 581.625 596.195312 C 580.898438 592.148438 583.558594 588.28125 587.605469 587.496094 Z M 587.542969 587.496094 " fill-opacity="1" fill-rule="nonzero"/><path fill="#2b2326" d="M 556.609375 592.449219 L 560.417969 591.96875 C 561.203125 591.847656 562.046875 591.726562 562.832031 591.605469 L 571.777344 590.214844 C 575.824219 589.609375 579.628906 592.390625 580.292969 596.4375 C 580.597656 598.429688 580.171875 600.421875 578.964844 602.054688 C 577.757812 603.683594 576.003906 604.710938 574.070312 605.011719 L 565.070312 606.402344 C 564.222656 606.523438 563.316406 606.644531 562.472656 606.765625 L 558.605469 607.246094 C 558.300781 607.246094 557.941406 607.308594 557.636719 607.308594 C 556.007812 607.308594 554.375 606.765625 553.046875 605.738281 C 551.476562 604.53125 550.449219 602.71875 550.207031 600.726562 C 549.664062 596.617188 552.5625 592.871094 556.671875 592.328125 Z M 556.609375 592.449219 " fill-opacity="1" fill-rule="nonzero"/><path fill="#2b2326" d="M 525.375 595.832031 L 533.046875 595.167969 C 534.679688 595.046875 536.25 594.867188 537.882812 594.683594 C 538.789062 594.5625 539.695312 594.503906 540.601562 594.382812 C 544.707031 593.960938 548.394531 596.917969 548.878906 601.027344 C 549.117188 603.019531 548.515625 605.011719 547.246094 606.582031 C 545.976562 608.152344 544.226562 609.121094 542.171875 609.363281 C 541.265625 609.484375 540.359375 609.542969 539.511719 609.664062 C 537.820312 609.84375 536.128906 610.027344 534.375 610.207031 L 526.644531 610.871094 C 526.402344 610.871094 526.21875 610.871094 525.980469 610.871094 C 524.226562 610.871094 522.535156 610.269531 521.144531 609.058594 C 519.632812 607.730469 518.667969 605.917969 518.546875 603.925781 C 518.246094 599.820312 521.328125 596.195312 525.375 595.832031 Z M 525.375 595.832031 " fill-opacity="1" fill-rule="nonzero"/><path fill="#2b2326" d="M 494.019531 597.582031 L 505.558594 597.101562 C 507.066406 597.101562 508.15625 596.980469 509.304688 596.917969 C 511.296875 596.796875 513.230469 597.464844 514.679688 598.792969 C 516.191406 600.121094 517.097656 601.992188 517.21875 603.984375 C 517.460938 608.09375 514.316406 611.65625 510.210938 611.957031 C 509 612.019531 507.734375 612.078125 506.160156 612.140625 L 494.5 612.625 L 494.378906 612.625 C 494.378906 612.625 494.257812 612.625 494.257812 612.625 C 490.210938 612.625 486.828125 609.363281 486.707031 605.253906 C 486.707031 603.261719 487.371094 601.328125 488.761719 599.878906 C 490.152344 598.429688 491.964844 597.644531 493.957031 597.582031 Z M 494.019531 597.582031 " fill-opacity="1" fill-rule="nonzero"/><path fill="#2b2326" d="M 462.601562 597.703125 C 466.226562 597.824219 469.972656 597.824219 473.535156 597.824219 C 474.984375 597.824219 476.4375 597.824219 477.824219 597.824219 C 481.933594 597.824219 485.257812 601.207031 485.316406 605.316406 C 485.316406 607.308594 484.59375 609.242188 483.140625 610.628906 C 481.753906 612.078125 479.820312 612.804688 477.824219 612.804688 C 476.375 612.804688 474.984375 612.804688 473.535156 612.804688 C 469.789062 612.804688 465.984375 612.804688 462.175781 612.683594 C 460.183594 612.683594 458.3125 611.777344 456.921875 610.328125 C 455.53125 608.878906 454.804688 606.945312 454.867188 604.953125 C 454.988281 600.84375 458.429688 597.523438 462.539062 597.644531 Z M 462.601562 597.703125 " fill-opacity="1" fill-rule="nonzero"/><path fill="#2b2326" d="M 387.320312 604.46875 C 385.992188 605.4375 384.480469 605.917969 382.910156 605.917969 C 381.339844 605.917969 382.125 605.917969 381.761719 605.859375 L 378.742188 605.375 C 374.632812 604.769531 370.464844 604.105469 366.292969 603.320312 C 364.300781 602.960938 362.609375 601.871094 361.460938 600.242188 C 360.3125 598.609375 359.890625 596.617188 360.253906 594.625 C 360.976562 590.578125 364.90625 587.800781 368.953125 588.523438 C 372.941406 589.25 376.988281 589.914062 380.914062 590.515625 L 383.996094 591 C 388.042969 591.605469 390.882812 595.46875 390.28125 599.515625 C 389.976562 601.511719 388.949219 603.261719 387.320312 604.46875 Z M 387.320312 604.46875 " fill-opacity="1" fill-rule="nonzero"/><path fill="#2b2326" d="M 355.722656 599.15625 C 354.453125 600 353.003906 600.421875 351.550781 600.421875 C 350.101562 600.421875 350.585938 600.421875 350.101562 600.300781 C 346.175781 599.578125 342.25 598.671875 338.441406 597.824219 C 337.234375 597.582031 336.023438 597.28125 334.757812 597.039062 C 332.761719 596.617188 331.132812 595.410156 330.042969 593.71875 C 328.957031 592.027344 328.652344 589.972656 329.078125 588.039062 C 329.984375 584.054688 334.03125 581.519531 338.019531 582.363281 C 339.226562 582.605469 340.433594 582.90625 341.644531 583.148438 C 345.328125 583.996094 349.195312 584.839844 353.003906 585.503906 C 357.050781 586.289062 359.707031 590.277344 358.863281 594.324219 C 358.5 596.316406 357.351562 598.007812 355.660156 599.09375 Z M 355.722656 599.15625 " fill-opacity="1" fill-rule="nonzero"/><path fill="#2b2326" d="M 320.496094 593.417969 C 319.894531 593.417969 319.351562 593.355469 318.746094 593.175781 L 311.132812 591.183594 C 310.289062 590.941406 309.382812 590.699219 308.535156 590.457031 C 306.902344 590.035156 305.210938 589.609375 303.582031 589.128906 C 299.59375 587.980469 297.296875 583.8125 298.445312 579.828125 C 298.988281 577.894531 300.257812 576.261719 302.011719 575.296875 C 303.761719 574.332031 305.753906 574.089844 307.6875 574.632812 C 309.199219 575.054688 310.832031 575.476562 312.339844 575.902344 C 313.246094 576.140625 314.152344 576.382812 315 576.625 L 322.371094 578.558594 C 324.304688 579.042969 325.933594 580.25 326.960938 581.941406 C 327.988281 583.632812 328.292969 585.683594 327.808594 587.617188 C 326.960938 591.0625 323.882812 593.355469 320.496094 593.355469 Z M 320.496094 593.417969 " fill-opacity="1" fill-rule="nonzero"/><path fill="#2b2326" d="M 293.429688 583.996094 C 292.34375 584.597656 291.132812 584.898438 289.925781 584.898438 C 288.71875 584.898438 288.414062 584.78125 287.691406 584.539062 L 280.320312 582.242188 C 278.6875 581.757812 276.996094 581.15625 275.425781 580.671875 C 274.582031 580.371094 273.734375 580.066406 272.828125 579.828125 C 270.894531 579.164062 269.382812 577.832031 268.476562 576.082031 C 267.570312 574.269531 267.449219 572.214844 268.117188 570.34375 C 269.445312 566.417969 273.671875 564.304688 277.601562 565.574219 C 278.507812 565.875 279.351562 566.175781 280.199219 566.480469 C 281.769531 567.023438 283.28125 567.503906 284.789062 567.988281 L 292.160156 570.285156 C 296.089844 571.492188 298.324219 575.71875 297.117188 579.644531 C 296.511719 581.578125 295.242188 583.148438 293.429688 584.113281 Z M 293.429688 583.996094 " fill-opacity="1" fill-rule="nonzero"/><path fill="#2b2326" d="M 262.917969 574.089844 C 261.890625 574.570312 260.804688 574.8125 259.71875 574.8125 C 258.628906 574.8125 258.027344 574.691406 257.238281 574.390625 C 253.734375 573.183594 250.292969 571.855469 246.96875 570.585938 C 245.519531 570.042969 244.070312 569.4375 242.558594 568.894531 C 240.6875 568.167969 239.175781 566.78125 238.390625 564.90625 C 237.605469 563.035156 237.542969 561.042969 238.269531 559.171875 C 239.78125 555.363281 244.128906 553.433594 247.9375 554.882812 C 249.386719 555.425781 250.835938 555.96875 252.285156 556.574219 C 255.546875 557.839844 258.871094 559.109375 262.253906 560.257812 C 266.121094 561.648438 268.175781 565.933594 266.785156 569.859375 C 266.121094 571.734375 264.730469 573.242188 262.917969 574.148438 Z M 262.917969 574.089844 " fill-opacity="1" fill-rule="nonzero"/><path fill="#2b2326" d="M 230.050781 563.277344 C 229.085938 563.277344 228.117188 563.097656 227.152344 562.671875 L 216.457031 558.082031 L 212.832031 556.453125 C 209.085938 554.761719 207.394531 550.292969 209.148438 546.488281 C 209.992188 544.675781 211.503906 543.226562 213.375 542.5625 C 215.25 541.835938 217.304688 541.957031 219.117188 542.742188 L 233.074219 548.78125 C 234.945312 549.566406 236.335938 550.957031 237.121094 552.828125 C 237.90625 554.699219 237.90625 556.753906 237.121094 558.566406 C 235.914062 561.464844 233.132812 563.21875 230.171875 563.21875 Z M 230.050781 563.277344 " fill-opacity="1" fill-rule="nonzero"/><path fill="#2b2326" d="M 203.589844 549.808594 C 202.804688 550.109375 201.957031 550.230469 201.113281 550.230469 C 200.265625 550.230469 198.875 549.988281 197.847656 549.507812 L 190.839844 546.125 C 189.332031 545.398438 187.820312 544.613281 186.308594 543.828125 C 185.523438 543.40625 184.679688 542.984375 183.832031 542.5625 C 182.019531 541.65625 180.691406 540.085938 180.085938 538.152344 C 179.484375 536.21875 179.664062 534.226562 180.570312 532.414062 C 182.441406 528.730469 186.972656 527.28125 190.660156 529.152344 C 191.503906 529.574219 192.351562 529.996094 193.136719 530.421875 C 194.585938 531.144531 195.976562 531.871094 197.425781 532.59375 L 204.375 535.917969 C 208.058594 537.730469 209.632812 542.199219 207.878906 545.882812 C 207.03125 547.695312 205.523438 549.082031 203.589844 549.746094 Z M 203.589844 549.808594 " fill-opacity="1" fill-rule="nonzero"/><path fill="#2b2326" d="M 174.949219 535.433594 C 174.226562 535.675781 173.5 535.734375 172.777344 535.734375 C 171.566406 535.734375 170.359375 535.433594 169.210938 534.828125 L 165.769531 533.015625 L 155.558594 527.21875 C 153.804688 526.253906 152.535156 524.621094 151.992188 522.6875 C 151.449219 520.757812 151.75 518.703125 152.777344 516.953125 C 154.832031 513.449219 159.425781 512.179688 162.988281 514.171875 L 173.019531 519.851562 L 176.339844 521.664062 C 179.964844 523.59375 181.355469 528.1875 179.363281 531.808594 C 178.394531 533.5625 176.824219 534.890625 174.890625 535.433594 Z M 174.949219 535.433594 " fill-opacity="1" fill-rule="nonzero"/><path fill="#2b2326" d="M 146.976562 519.667969 C 146.375 519.789062 145.828125 519.851562 145.226562 519.851562 C 143.835938 519.851562 142.507812 519.488281 141.296875 518.703125 L 133.203125 513.628906 C 131.511719 512.601562 129.757812 511.515625 128.128906 510.367188 C 124.683594 508.074219 123.71875 503.421875 125.953125 499.980469 C 127.039062 498.289062 128.730469 497.140625 130.726562 496.71875 C 132.660156 496.296875 134.652344 496.71875 136.34375 497.804688 C 137.914062 498.890625 139.484375 499.859375 141.175781 500.945312 L 149.214844 506.019531 C 152.65625 508.195312 153.804688 512.785156 151.691406 516.289062 C 150.664062 517.976562 148.972656 519.246094 146.976562 519.730469 Z M 146.976562 519.667969 " fill-opacity="1" fill-rule="nonzero"/><path fill="#2b2326" d="M 119.972656 502.457031 C 119.488281 502.515625 119.066406 502.578125 118.582031 502.578125 C 117.070312 502.578125 115.621094 502.152344 114.351562 501.246094 L 111.089844 499.011719 L 107.886719 496.71875 C 107.164062 496.175781 106.4375 495.628906 105.652344 495.148438 C 104.261719 494.179688 102.871094 493.15625 101.484375 492.128906 C 99.851562 490.917969 98.824219 489.167969 98.523438 487.175781 C 98.21875 485.183594 98.765625 483.1875 99.914062 481.617188 C 102.390625 478.296875 107.101562 477.632812 110.425781 480.046875 C 111.695312 481.015625 112.960938 481.921875 114.292969 482.886719 C 115.078125 483.429688 115.800781 483.972656 116.527344 484.457031 L 119.609375 486.632812 L 122.75 488.804688 C 126.132812 491.160156 126.980469 495.8125 124.683594 499.195312 C 123.535156 500.886719 121.84375 501.972656 119.851562 502.335938 Z M 119.972656 502.457031 " fill-opacity="1" fill-rule="nonzero"/><path fill="#2b2326" d="M 92.964844 483.671875 C 91.332031 483.671875 89.761719 483.128906 88.371094 482.101562 C 87.40625 481.375 86.4375 480.589844 85.53125 479.804688 L 81.121094 476.183594 C 80.457031 475.636719 79.792969 475.09375 79.066406 474.492188 L 76.109375 471.953125 C 74.597656 470.625 73.691406 468.8125 73.570312 466.761719 C 73.449219 464.765625 74.113281 462.835938 75.441406 461.324219 C 78.160156 458.242188 82.933594 457.941406 86.015625 460.597656 L 88.855469 463.074219 C 89.460938 463.621094 90.0625 464.101562 90.667969 464.585938 L 95.078125 468.210938 C 95.863281 468.875 96.710938 469.539062 97.554688 470.203125 C 99.128906 471.472656 100.152344 473.222656 100.335938 475.214844 C 100.578125 477.210938 100.035156 479.140625 98.765625 480.710938 C 97.253906 482.585938 95.078125 483.613281 92.84375 483.613281 Z M 92.964844 483.671875 " fill-opacity="1" fill-rule="nonzero"/><path fill="#2b2326" d="M 69.039062 462.773438 C 67.042969 462.773438 65.171875 461.988281 63.84375 460.597656 L 58.222656 455.042969 C 57.015625 453.835938 55.867188 452.566406 54.71875 451.359375 C 54.117188 450.695312 53.449219 450.03125 52.847656 449.363281 C 51.457031 447.914062 50.730469 445.984375 50.792969 443.929688 C 50.851562 441.9375 51.757812 440.0625 53.269531 438.675781 C 56.289062 435.957031 61.003906 436.136719 63.78125 439.035156 C 64.445312 439.703125 65.050781 440.367188 65.65625 441.03125 C 66.742188 442.175781 67.832031 443.386719 68.917969 444.472656 L 74.414062 449.910156 C 77.316406 452.808594 77.375 457.398438 74.535156 460.359375 C 73.148438 461.808594 71.152344 462.714844 69.160156 462.714844 C 69.160156 462.714844 69.160156 462.714844 69.097656 462.714844 Z M 69.039062 462.773438 " fill-opacity="1" fill-rule="nonzero"/><path fill="#2b2326" d="M 46.867188 439.339844 C 44.871094 439.15625 43.058594 438.132812 41.789062 436.621094 C 38.589844 432.753906 35.628906 428.648438 32.726562 424.722656 L 32.003906 423.757812 C 29.707031 420.3125 30.613281 415.601562 34.058594 413.308594 C 35.75 412.160156 37.742188 411.796875 39.734375 412.160156 C 41.667969 412.523438 43.300781 413.609375 44.386719 415.238281 L 45.054688 416.207031 C 47.710938 419.890625 50.429688 423.636719 53.390625 427.199219 C 55.929688 430.339844 55.445312 435.050781 52.304688 437.707031 C 50.972656 438.855469 49.28125 439.460938 47.53125 439.460938 C 45.777344 439.460938 47.046875 439.460938 46.804688 439.460938 Z M 46.867188 439.339844 " fill-opacity="1" fill-rule="nonzero"/><path fill="#2b2326" d="M 27.710938 413.066406 C 25.78125 412.582031 24.085938 411.375 23.0625 409.621094 L 21.972656 407.8125 C 21.730469 407.386719 21.550781 406.964844 21.308594 406.601562 L 17.320312 399.054688 L 15.570312 395.246094 C 14.722656 393.375 14.601562 391.320312 15.328125 389.449219 C 16.050781 387.578125 17.441406 386.066406 19.253906 385.222656 C 23 383.53125 27.472656 385.222656 29.164062 388.84375 L 30.734375 392.167969 L 34.601562 399.414062 C 34.78125 399.71875 34.902344 400.019531 35.082031 400.320312 L 36.050781 401.890625 C 38.164062 405.394531 37.015625 409.984375 33.453125 412.160156 C 32.246094 412.882812 30.914062 413.246094 29.585938 413.246094 C 28.257812 413.246094 28.378906 413.1875 27.773438 413.003906 Z M 27.710938 413.066406 " fill-opacity="1" fill-rule="nonzero"/><path fill="#2b2326" d="M 8.984375 379.484375 C 7.351562 374.832031 5.839844 369.757812 4.453125 363.902344 C 3.96875 361.90625 4.332031 359.855469 5.417969 358.164062 C 6.507812 356.472656 8.199219 355.324219 10.132812 354.902344 C 14.117188 354.054688 18.105469 356.59375 19.074219 360.519531 C 20.34375 365.832031 21.671875 370.421875 23.121094 374.589844 L 23.121094 374.710938 C 24.449219 378.578125 22.457031 382.683594 18.648438 384.132812 C 17.804688 384.4375 16.898438 384.617188 16.050781 384.617188 C 15.207031 384.617188 13.816406 384.375 12.789062 383.894531 C 10.976562 383.046875 9.585938 381.476562 8.984375 379.605469 Z M 8.984375 379.484375 " fill-opacity="1" fill-rule="nonzero"/><g clip-path="url(#03438e7128)"><path fill="#2b2326" d="M 0.34375 330.800781 C 0.34375 328.75 1.070312 326.875 2.519531 325.425781 C 3.910156 324.039062 5.839844 323.191406 7.835938 323.191406 C 11.945312 323.191406 15.265625 326.453125 15.328125 330.558594 C 15.386719 335.210938 15.75 340.042969 16.355469 345.175781 C 16.898438 349.222656 13.996094 352.96875 9.949219 353.574219 C 9.585938 353.574219 9.226562 353.632812 8.863281 353.632812 C 7.230469 353.632812 5.660156 353.089844 4.390625 352.121094 C 2.761719 350.914062 1.734375 349.101562 1.492188 347.050781 C 0.828125 341.433594 0.464844 335.996094 0.34375 330.863281 Z M 0.34375 330.800781 " fill-opacity="1" fill-rule="nonzero"/></g><path fill="#2b2326" d="M 15.992188 315.21875 C 15.507812 319.023438 12.304688 321.863281 8.5 321.863281 C 4.695312 321.863281 8.136719 321.863281 7.894531 321.863281 C 5.839844 321.683594 3.96875 320.714844 2.699219 319.144531 C 1.429688 317.574219 0.828125 315.640625 1.070312 313.648438 C 1.550781 308.394531 2.398438 303.019531 3.605469 297.582031 C 4.027344 295.589844 5.238281 293.898438 6.929688 292.8125 C 8.679688 291.722656 10.675781 291.421875 12.667969 291.90625 C 16.597656 292.871094 19.074219 296.859375 18.289062 300.785156 C 17.199219 305.675781 16.414062 310.507812 15.992188 315.160156 L 15.992188 315.28125 Z M 15.992188 315.21875 " fill-opacity="1" fill-rule="nonzero"/><path fill="#2b2326" d="M 22.578125 285.984375 C 21.488281 289.007812 18.589844 290.878906 15.507812 290.878906 C 12.425781 290.878906 13.878906 290.757812 13.089844 290.457031 C 11.21875 289.792969 9.648438 288.460938 8.742188 286.652344 C 7.835938 284.839844 7.714844 282.785156 8.378906 280.851562 L 8.378906 280.730469 C 10.371094 275.539062 12.609375 270.464844 15.207031 265.632812 C 16.171875 263.820312 17.804688 262.550781 19.796875 262.007812 C 21.730469 261.464844 23.785156 261.707031 25.539062 262.734375 C 29.042969 264.785156 30.371094 269.316406 28.4375 272.820312 C 26.203125 276.988281 24.269531 281.394531 22.578125 285.925781 Z M 22.578125 285.984375 " fill-opacity="1" fill-rule="nonzero"/><path fill="#2b2326" d="M 36.65625 260.136719 C 35.203125 262.066406 32.96875 263.09375 30.671875 263.09375 C 28.378906 263.09375 27.59375 262.613281 26.261719 261.707031 C 24.632812 260.558594 23.542969 258.804688 23.242188 256.8125 C 22.941406 254.820312 23.421875 252.765625 24.691406 251.074219 C 28.136719 246.605469 31.882812 242.4375 35.808594 238.695312 L 35.871094 238.695312 C 37.378906 237.246094 39.375 236.519531 41.367188 236.640625 C 43.359375 236.761719 45.234375 237.605469 46.5625 239.117188 C 49.28125 242.136719 49.039062 246.847656 46.140625 249.566406 C 42.757812 252.765625 39.554688 256.332031 36.65625 260.136719 Z M 36.65625 260.136719 " fill-opacity="1" fill-rule="nonzero"/><path fill="#2b2326" d="M 70.308594 233.199219 L 70.1875 233.199219 C 69.582031 233.5 68.917969 233.863281 68.191406 234.222656 C 67.832031 234.40625 67.46875 234.585938 67.105469 234.769531 L 65.414062 235.675781 C 65.171875 235.792969 64.871094 235.976562 64.628906 236.097656 C 64.445312 236.21875 64.207031 236.339844 64.023438 236.460938 C 63.660156 236.699219 63.238281 236.941406 62.816406 237.125 C 62.152344 237.484375 61.546875 237.847656 60.941406 238.210938 L 57.800781 240.265625 L 57.742188 240.265625 C 56.472656 241.109375 55.082031 241.472656 53.691406 241.472656 C 52.304688 241.472656 52.785156 241.472656 52.363281 241.351562 C 50.429688 240.988281 48.738281 239.902344 47.589844 238.332031 C 46.382812 236.699219 45.960938 234.648438 46.320312 232.652344 C 46.683594 230.539062 47.890625 228.726562 49.582031 227.703125 L 53.027344 225.464844 C 53.8125 224.984375 54.597656 224.5 55.382812 224.078125 C 55.746094 223.835938 56.167969 223.65625 56.59375 223.351562 C 56.773438 223.230469 56.953125 223.171875 57.136719 223.050781 C 57.558594 222.808594 58.042969 222.507812 58.464844 222.324219 L 60.277344 221.417969 C 60.640625 221.238281 60.941406 221.058594 61.304688 220.875 C 62.152344 220.453125 63.058594 219.96875 64.023438 219.546875 C 65.898438 218.703125 67.949219 218.640625 69.824219 219.367188 C 71.695312 220.089844 73.148438 221.480469 73.992188 223.351562 C 75.625 227.097656 73.992188 231.507812 70.308594 233.199219 Z M 70.308594 233.199219 " fill-opacity="1" fill-rule="nonzero"/><path fill="#2b2326" d="M 98.703125 224.441406 L 98.644531 224.441406 C 96.890625 224.742188 95.140625 225.105469 93.265625 225.464844 C 92.722656 225.585938 92.117188 225.707031 91.574219 225.828125 L 90.125 226.191406 C 88.191406 226.675781 86.4375 227.097656 84.6875 227.703125 L 84.566406 227.703125 C 83.839844 227.941406 83.175781 228.0625 82.453125 228.0625 C 79.308594 228.0625 76.347656 226.070312 75.320312 222.871094 C 74.65625 220.9375 74.839844 218.882812 75.804688 217.070312 C 76.773438 215.257812 78.34375 213.992188 80.277344 213.386719 C 82.453125 212.722656 84.566406 212.179688 86.679688 211.636719 L 88.128906 211.273438 L 90.0625 210.851562 C 92.117188 210.425781 94.234375 209.945312 96.285156 209.640625 C 98.339844 209.28125 100.335938 209.761719 101.964844 210.972656 C 103.597656 212.179688 104.625 213.929688 104.925781 215.921875 C 105.46875 219.96875 102.691406 223.773438 98.765625 224.441406 Z M 98.703125 224.441406 " fill-opacity="1" fill-rule="nonzero"/><path fill="#2b2326" d="M 134.109375 221.179688 C 132.71875 222.386719 130.96875 223.050781 129.214844 223.050781 C 127.460938 223.050781 128.914062 223.050781 128.730469 223.050781 C 124.199219 222.75 119.425781 222.6875 114.109375 222.871094 C 110.0625 223.050781 106.558594 219.910156 106.257812 215.800781 C 106.136719 213.808594 106.800781 211.875 108.128906 210.367188 C 109.457031 208.855469 111.332031 207.949219 113.445312 207.828125 C 119.367188 207.589844 124.683594 207.648438 129.699219 208.011719 C 131.753906 208.132812 133.625 209.039062 134.953125 210.609375 C 136.285156 212.117188 136.886719 214.113281 136.707031 216.105469 C 136.523438 218.097656 135.617188 219.910156 134.167969 221.179688 Z M 134.109375 221.179688 " fill-opacity="1" fill-rule="nonzero"/><path fill="#2b2326" d="M 160.449219 228.183594 C 159.847656 228.183594 159.242188 228.125 158.636719 227.941406 L 158.515625 227.941406 C 154.347656 226.734375 149.757812 225.769531 144.199219 224.800781 C 140.210938 224.136719 137.371094 220.332031 137.976562 216.285156 C 138.277344 214.292969 139.304688 212.542969 140.9375 211.332031 C 142.566406 210.125 144.5625 209.640625 146.675781 210.003906 C 152.777344 211.089844 157.792969 212.179688 162.445312 213.445312 C 164.378906 213.929688 166.007812 215.199219 167.035156 216.949219 C 168.0625 218.703125 168.304688 220.816406 167.761719 222.75 C 166.792969 226.070312 163.835938 228.183594 160.511719 228.183594 Z M 160.449219 228.183594 " fill-opacity="1" fill-rule="nonzero"/><path fill="#2b2326" d="M 190.238281 239.238281 C 189.148438 239.238281 188.0625 238.996094 187.035156 238.511719 L 183.589844 236.882812 L 180.148438 235.371094 C 179.300781 235.007812 178.457031 234.648438 177.488281 234.285156 L 176.824219 234.042969 C 176.402344 233.863281 176.039062 233.742188 175.617188 233.558594 C 174.832031 233.257812 174.105469 232.957031 173.378906 232.714844 C 169.574219 231.324219 167.582031 227.035156 168.910156 223.171875 C 169.574219 221.300781 170.964844 219.730469 172.777344 218.882812 C 174.589844 218.039062 176.644531 217.917969 178.515625 218.582031 C 179.484375 218.945312 180.390625 219.304688 181.234375 219.609375 C 181.597656 219.730469 181.960938 219.910156 182.382812 220.089844 L 183.046875 220.394531 C 184.074219 220.816406 185.101562 221.238281 186.128906 221.660156 L 189.753906 223.230469 L 193.378906 224.984375 C 195.25 225.828125 196.582031 227.339844 197.246094 229.273438 C 197.910156 231.203125 197.730469 233.316406 196.824219 235.128906 C 195.492188 237.726562 192.835938 239.238281 190.117188 239.238281 Z M 190.238281 239.238281 " fill-opacity="1" fill-rule="nonzero"/><path fill="#2b2326" d="M 217.484375 255.546875 C 215.976562 255.546875 214.523438 255.121094 213.195312 254.214844 L 210.054688 251.980469 C 209.511719 251.558594 208.90625 251.195312 208.242188 250.773438 C 207.820312 250.53125 207.394531 250.230469 207.09375 250.050781 C 206.308594 249.566406 205.523438 249.082031 204.796875 248.539062 C 203.46875 247.691406 202.140625 246.847656 200.75 246.003906 C 199.058594 245.035156 197.847656 243.40625 197.367188 241.53125 C 196.824219 239.601562 197.125 237.546875 198.152344 235.792969 C 200.207031 232.230469 204.859375 230.960938 208.421875 233.015625 L 208.542969 233.015625 C 209.992188 233.984375 211.503906 234.890625 212.953125 235.855469 C 213.738281 236.339844 214.464844 236.820312 215.308594 237.363281 C 215.671875 237.605469 216.035156 237.847656 216.398438 238.089844 C 217.183594 238.574219 217.96875 239.054688 218.695312 239.601562 L 221.894531 241.835938 C 223.527344 242.980469 224.675781 244.734375 224.976562 246.726562 C 225.277344 248.71875 224.855469 250.714844 223.648438 252.34375 C 222.199219 254.398438 219.839844 255.484375 217.484375 255.484375 Z M 217.484375 255.546875 " fill-opacity="1" fill-rule="nonzero"/><path fill="#2b2326" d="M 233.917969 270.464844 C 233.617188 270.222656 233.375 269.980469 233.132812 269.738281 L 225.824219 263.636719 C 222.679688 261.101562 222.136719 256.390625 224.675781 253.191406 C 225.882812 251.621094 227.757812 250.59375 229.75 250.351562 C 231.742188 250.109375 233.738281 250.714844 235.367188 251.980469 L 242.921875 258.261719 C 243.285156 258.566406 243.644531 258.867188 244.007812 259.230469 L 247.390625 262.25 C 248.902344 263.578125 249.808594 265.449219 249.871094 267.445312 C 249.988281 269.4375 249.265625 271.371094 247.875 272.878906 C 246.363281 274.511719 244.371094 275.296875 242.316406 275.296875 C 240.261719 275.296875 238.753906 274.691406 237.300781 273.421875 L 233.917969 270.402344 Z M 233.917969 270.464844 " fill-opacity="1" fill-rule="nonzero"/><path fill="#2b2326" d="M 259.414062 295.347656 L 256.273438 292.027344 C 255.609375 291.300781 254.945312 290.578125 254.21875 289.851562 L 248.78125 284.355469 C 245.941406 281.394531 245.941406 276.804688 248.78125 273.847656 C 250.171875 272.394531 252.164062 271.550781 254.160156 271.550781 C 256.152344 271.550781 258.027344 272.335938 259.414062 273.726562 L 259.050781 272.941406 C 258.207031 271.066406 258.207031 269.015625 258.933594 267.140625 C 259.65625 265.269531 261.105469 263.820312 262.980469 263.035156 C 266.726562 261.464844 271.136719 263.214844 272.828125 266.898438 L 273.433594 268.230469 C 274.277344 270.160156 275.0625 271.972656 275.96875 273.847656 L 277.601562 277.347656 C 277.964844 278.074219 278.265625 278.796875 278.628906 279.464844 C 278.808594 279.886719 279.050781 280.308594 279.230469 280.671875 C 281.042969 284.355469 279.535156 288.886719 275.847656 290.695312 C 274.761719 291.242188 273.613281 291.484375 272.464844 291.484375 C 271.316406 291.484375 272.285156 291.484375 272.164062 291.484375 C 271.859375 293.054688 271.074219 294.503906 269.867188 295.589844 C 268.417969 296.917969 266.605469 297.582031 264.730469 297.582031 C 262.859375 297.582031 260.742188 296.796875 259.234375 295.226562 Z M 259.414062 295.347656 " fill-opacity="1" fill-rule="nonzero"/><path fill="#2b2326" d="M 290.289062 331.464844 C 287.871094 328.445312 288.234375 324.097656 290.953125 321.441406 C 291.4375 320.777344 292.101562 320.171875 292.828125 319.6875 C 296.269531 317.394531 300.921875 318.359375 303.21875 321.742188 L 307.507812 328.023438 C 308.050781 328.75 308.59375 329.535156 309.078125 330.257812 C 310.046875 331.585938 311.011719 332.917969 311.917969 334.246094 C 313.792969 336.78125 313.792969 340.042969 312.28125 342.578125 C 311.796875 343.425781 311.132812 344.210938 310.347656 344.816406 C 308.957031 345.902344 307.328125 346.386719 305.695312 346.386719 C 304.0625 346.386719 301.285156 345.417969 299.773438 343.546875 L 295 337.507812 L 290.167969 331.464844 Z M 290.289062 331.464844 " fill-opacity="1" fill-rule="nonzero"/><path fill="#2b2326" d="M 286.785156 295.046875 C 289.082031 299.152344 291.558594 303.5 294.519531 308.273438 C 296.632812 311.835938 295.546875 316.367188 292.039062 318.542969 C 292.039062 318.542969 291.980469 318.542969 291.921875 318.542969 C 291.558594 319.023438 291.132812 319.507812 290.652344 319.929688 C 289.261719 321.078125 287.570312 321.621094 285.878906 321.621094 C 284.1875 321.621094 281.589844 320.714844 280.136719 318.964844 C 279.535156 318.238281 278.929688 317.515625 278.324219 316.789062 C 277.300781 315.519531 276.273438 314.3125 275.246094 313.105469 L 270.230469 307.246094 C 267.570312 304.167969 267.933594 299.394531 271.015625 296.738281 C 271.800781 296.074219 272.648438 295.589844 273.613281 295.226562 C 274.277344 293.898438 275.367188 292.8125 276.695312 292.027344 C 280.320312 290.09375 284.851562 291.421875 286.84375 294.984375 Z M 286.785156 295.046875 " fill-opacity="1" fill-rule="nonzero"/><path fill="#2b2326" d="M 262.558594 261.707031 C 261.710938 262.066406 260.804688 262.1875 259.898438 262.1875 C 258.992188 262.1875 257.785156 261.949219 256.816406 261.523438 C 255.003906 260.679688 253.613281 259.230469 252.828125 257.296875 C 252.226562 255.667969 251.683594 254.035156 251.078125 252.464844 C 250.777344 251.621094 250.472656 250.714844 250.171875 249.867188 L 249.324219 247.332031 C 248.78125 245.640625 248.238281 243.949219 247.632812 242.136719 C 247.089844 240.203125 247.269531 238.148438 248.238281 236.398438 C 249.203125 234.648438 250.777344 233.378906 252.707031 232.773438 C 256.695312 231.628906 260.804688 233.863281 262.011719 237.789062 C 262.496094 239.359375 263.039062 240.988281 263.523438 242.558594 L 264.308594 244.976562 C 264.609375 245.820312 264.914062 246.726562 265.214844 247.574219 C 265.757812 249.082031 266.304688 250.652344 266.847656 252.101562 C 268.296875 255.96875 266.363281 260.316406 262.496094 261.765625 Z M 262.558594 261.707031 " fill-opacity="1" fill-rule="nonzero"/><path fill="#2b2326" d="M 243.222656 225.769531 L 242.316406 221.964844 C 242.074219 221.058594 241.894531 220.152344 241.773438 219.246094 C 241.710938 218.824219 241.59375 218.398438 241.53125 217.917969 L 240.746094 214.050781 L 240.082031 210.003906 C 239.71875 208.011719 240.203125 205.957031 241.410156 204.328125 C 242.617188 202.695312 244.3125 201.609375 246.304688 201.308594 C 250.351562 200.703125 254.21875 203.480469 254.882812 207.46875 L 255.488281 211.210938 L 256.214844 214.898438 C 256.332031 215.378906 256.394531 215.800781 256.515625 216.285156 C 256.636719 217.011719 256.816406 217.796875 257 218.582031 L 257.84375 222.324219 C 258.75 226.3125 256.273438 230.359375 252.347656 231.324219 C 251.742188 231.507812 251.136719 231.566406 250.472656 231.566406 C 249.144531 231.566406 247.816406 231.203125 246.605469 230.480469 C 244.855469 229.390625 243.644531 227.761719 243.222656 225.769531 Z M 243.222656 225.769531 " fill-opacity="1" fill-rule="nonzero"/><path fill="#2b2326" d="M 237.605469 190.074219 L 237.300781 185.121094 C 237.242188 183.367188 237.179688 181.675781 237.121094 179.925781 C 237.121094 179.019531 237.121094 178.113281 237.058594 177.148438 L 237.058594 176.964844 C 237.058594 172.796875 240.445312 169.417969 244.550781 169.417969 C 246.546875 169.417969 248.480469 170.203125 249.867188 171.652344 C 251.257812 173.039062 251.984375 174.851562 252.042969 176.785156 C 252.042969 177.691406 252.042969 178.597656 252.105469 179.503906 C 252.105469 181.132812 252.226562 182.703125 252.285156 184.273438 L 252.589844 189.046875 C 252.648438 189.953125 252.707031 190.859375 252.828125 191.765625 C 253.253906 195.871094 250.230469 199.554688 246.125 199.976562 C 245.882812 199.976562 245.578125 199.976562 245.335938 199.976562 C 243.644531 199.976562 242.015625 199.375 240.625 198.285156 C 239.054688 197.019531 238.085938 195.207031 237.847656 193.214844 C 237.726562 192.125 237.664062 191.039062 237.605469 190.011719 Z M 237.605469 190.074219 " fill-opacity="1" fill-rule="nonzero"/><path fill="#2b2326" d="M 248.117188 137.648438 C 252.164062 138.371094 254.882812 142.238281 254.28125 146.222656 C 254.21875 146.707031 254.160156 147.128906 254.039062 147.613281 C 253.917969 148.398438 253.796875 149.121094 253.675781 149.847656 L 253.191406 153.710938 C 252.949219 155.644531 252.769531 157.578125 252.589844 159.632812 L 252.46875 161.082031 C 252.285156 163.074219 251.378906 164.886719 249.871094 166.15625 C 248.480469 167.363281 246.726562 168.027344 244.914062 168.027344 C 243.101562 168.027344 244.613281 168.027344 244.492188 168.027344 C 242.5 167.90625 240.566406 167 239.234375 165.429688 C 237.90625 163.921875 237.300781 161.925781 237.484375 159.933594 L 237.605469 158.542969 C 237.785156 156.371094 237.96875 154.074219 238.269531 151.902344 L 238.753906 147.914062 C 238.875 147.007812 238.992188 146.164062 239.175781 145.257812 C 239.234375 144.835938 239.296875 144.351562 239.417969 143.867188 C 239.71875 141.875 240.808594 140.0625 242.5 138.914062 C 244.128906 137.765625 246.125 137.285156 248.117188 137.648438 Z M 248.117188 137.648438 " fill-opacity="1" fill-rule="nonzero"/><path fill="#2b2326" d="M 248.058594 111.433594 C 248.78125 109.5 250.230469 108.050781 252.105469 107.207031 C 253.976562 106.421875 256.09375 106.421875 257.90625 107.207031 C 261.710938 108.777344 263.523438 113.003906 262.011719 116.871094 C 260.199219 121.519531 258.628906 126.230469 257.421875 130.941406 C 256.515625 134.265625 253.496094 136.5 250.171875 136.5 C 246.847656 136.5 248.964844 136.4375 248.359375 136.257812 C 246.425781 135.773438 244.671875 134.503906 243.644531 132.816406 C 242.617188 131.0625 242.316406 129.007812 242.859375 127.015625 C 244.25 121.820312 246.003906 116.566406 247.996094 111.433594 Z M 248.058594 111.433594 " fill-opacity="1" fill-rule="nonzero"/><path fill="#2b2326" d="M 276.152344 89.992188 C 273.371094 94.097656 270.835938 98.386719 268.539062 102.734375 C 267.148438 105.273438 264.609375 106.660156 261.890625 106.660156 C 259.171875 106.660156 259.597656 106.421875 258.507812 105.875 C 256.695312 104.972656 255.308594 103.339844 254.703125 101.40625 C 254.097656 99.472656 254.28125 97.359375 255.246094 95.609375 C 257.785156 90.835938 260.5625 86.125 263.582031 81.597656 C 264.730469 79.90625 266.421875 78.757812 268.417969 78.335938 C 270.410156 77.972656 272.464844 78.394531 274.097656 79.542969 C 277.480469 81.898438 278.324219 86.429688 276.089844 89.871094 Z M 276.152344 89.992188 " fill-opacity="1" fill-rule="nonzero"/><path fill="#2b2326" d="M 275.0625 78.515625 C 273.492188 77.246094 272.527344 75.496094 272.285156 73.503906 C 272.042969 71.507812 272.648438 69.515625 273.976562 67.886719 C 277.417969 63.777344 281.105469 59.671875 284.972656 55.804688 C 286.421875 54.355469 288.355469 53.632812 290.410156 53.632812 C 292.402344 53.632812 294.277344 54.476562 295.664062 55.925781 C 298.503906 58.886719 298.445312 63.597656 295.546875 66.496094 C 292.039062 70 288.65625 73.683594 285.574219 77.429688 C 284.125 79.242188 281.949219 80.207031 279.777344 80.207031 C 277.601562 80.207031 276.453125 79.664062 275.0625 78.578125 Z M 275.0625 78.515625 " fill-opacity="1" fill-rule="nonzero"/><path fill="#2b2326" d="M 319.109375 47.230469 C 315 49.886719 311.011719 52.847656 307.144531 55.988281 C 305.753906 57.136719 304.125 57.679688 302.433594 57.679688 C 300.742188 57.679688 298.144531 56.773438 296.632812 55.019531 C 295.304688 53.511719 294.699219 51.519531 294.878906 49.523438 C 295.0625 47.472656 296.027344 45.660156 297.660156 44.332031 C 301.890625 40.886719 306.359375 37.625 310.890625 34.667969 C 312.644531 33.578125 314.636719 33.21875 316.632812 33.640625 C 318.5625 34.0625 320.257812 35.269531 321.34375 36.960938 C 323.519531 40.464844 322.492188 45.054688 319.109375 47.230469 Z M 319.109375 47.230469 " fill-opacity="1" fill-rule="nonzero"/><path fill="#2b2326" d="M 322.613281 36.175781 C 321.644531 34.363281 321.464844 32.371094 322.070312 30.378906 C 322.671875 28.445312 324.003906 26.933594 325.875 25.96875 C 330.828125 23.492188 335.84375 21.257812 340.980469 19.386719 C 342.914062 18.660156 344.96875 18.78125 346.839844 19.6875 C 348.652344 20.53125 350.042969 22.101562 350.644531 23.976562 C 351.976562 27.839844 349.921875 32.070312 346.113281 33.457031 C 341.582031 35.148438 337.050781 37.144531 332.640625 39.378906 C 331.554688 39.921875 330.40625 40.164062 329.257812 40.164062 C 328.109375 40.164062 327.6875 40.042969 326.960938 39.800781 C 325.089844 39.195312 323.519531 37.929688 322.550781 36.175781 Z M 322.613281 36.175781 " fill-opacity="1" fill-rule="nonzero"/><path fill="#2b2326" d="M 351.976562 23.613281 C 351.492188 21.621094 351.792969 19.628906 352.820312 17.875 C 353.910156 16.125 355.601562 14.914062 357.59375 14.492188 C 363.214844 13.226562 368.710938 12.378906 374.027344 11.894531 C 376.082031 11.714844 378.074219 12.378906 379.585938 13.769531 C 381.097656 15.097656 382.003906 16.910156 382.125 18.960938 C 382.363281 23.070312 379.285156 26.632812 375.234375 26.933594 C 370.644531 27.296875 365.8125 28.082031 360.855469 29.171875 C 360.3125 29.289062 359.769531 29.351562 359.226562 29.351562 C 355.84375 29.351562 352.761719 27.054688 351.914062 23.671875 Z M 351.976562 23.613281 " fill-opacity="1" fill-rule="nonzero"/><path fill="#2b2326" d="M 406.472656 28.988281 C 405.929688 28.988281 405.382812 28.988281 404.839844 28.808594 C 400.066406 27.71875 395.234375 26.996094 390.644531 26.695312 C 386.59375 26.453125 383.453125 22.949219 383.574219 18.84375 C 383.632812 16.847656 384.480469 14.976562 385.992188 13.648438 C 387.5 12.257812 389.496094 11.59375 391.609375 11.714844 C 397.046875 12.078125 402.605469 12.921875 408.164062 14.191406 C 410.15625 14.675781 411.910156 15.882812 412.9375 17.632812 C 413.964844 19.386719 414.265625 21.378906 413.78125 23.371094 C 412.875 26.753906 409.796875 29.050781 406.472656 29.050781 Z M 406.472656 28.988281 " fill-opacity="1" fill-rule="nonzero"/><path fill="#2b2326" d="M 415.171875 23.792969 C 415.898438 21.921875 417.285156 20.414062 419.097656 19.628906 C 420.972656 18.78125 423.085938 18.722656 424.960938 19.507812 L 425.019531 19.507812 C 430.15625 21.679688 435.109375 24.15625 439.945312 26.996094 C 441.695312 28.082031 442.964844 29.773438 443.449219 31.765625 C 443.929688 33.699219 443.570312 35.753906 442.480469 37.445312 C 441.03125 39.738281 438.554688 40.949219 436.015625 40.949219 C 433.480469 40.949219 433.417969 40.585938 432.210938 39.921875 C 428.042969 37.445312 423.75 35.332031 419.28125 33.457031 C 415.535156 31.949219 413.660156 27.660156 415.113281 23.855469 Z M 415.171875 23.792969 " fill-opacity="1" fill-rule="nonzero"/><path fill="#2b2326" d="M 443.628906 38.167969 C 444.835938 36.597656 446.589844 35.574219 448.582031 35.332031 C 450.636719 35.089844 452.632812 35.632812 454.324219 36.960938 C 458.492188 40.40625 462.601562 44.148438 466.46875 48.195312 C 467.855469 49.707031 468.582031 51.636719 468.519531 53.691406 C 468.460938 55.683594 467.554688 57.558594 466.105469 58.886719 C 464.65625 60.214844 462.84375 60.820312 461.03125 60.820312 C 459.21875 60.820312 457.042969 60.035156 455.59375 58.523438 C 452.207031 54.960938 448.582031 51.636719 444.957031 48.617188 C 441.757812 46.082031 441.210938 41.429688 443.691406 38.167969 Z M 443.628906 38.167969 " fill-opacity="1" fill-rule="nonzero"/><path fill="#2b2326" d="M 473.777344 82.742188 C 471.238281 78.457031 468.460938 74.289062 465.621094 70.484375 C 463.144531 67.222656 463.808594 62.570312 467.011719 60.035156 C 468.582031 58.824219 470.574219 58.28125 472.570312 58.523438 C 474.5625 58.765625 476.375 59.851562 477.644531 61.484375 C 480.847656 65.773438 483.867188 70.363281 486.707031 75.132812 C 487.734375 76.886719 487.976562 78.9375 487.433594 80.933594 C 486.886719 82.863281 485.621094 84.496094 483.929688 85.460938 C 482.78125 86.125 481.511719 86.429688 480.242188 86.429688 C 477.644531 86.429688 475.105469 85.097656 473.777344 82.742188 Z M 473.777344 82.742188 " fill-opacity="1" fill-rule="nonzero"/><path fill="#2b2326" d="M 500.480469 111.253906 C 499.574219 113.0625 498.066406 114.394531 496.132812 115.058594 C 495.347656 115.300781 494.5625 115.417969 493.777344 115.417969 C 490.695312 115.417969 487.734375 113.488281 486.648438 110.40625 C 485.015625 105.816406 483.140625 101.164062 481.027344 96.636719 C 479.335938 92.953125 480.90625 88.480469 484.59375 86.667969 C 486.40625 85.765625 488.460938 85.703125 490.332031 86.367188 C 492.265625 87.03125 493.777344 88.421875 494.683594 90.355469 C 496.976562 95.308594 499.03125 100.378906 500.84375 105.453125 C 501.507812 107.386719 501.386719 109.441406 500.480469 111.253906 Z M 500.480469 111.253906 " fill-opacity="1" fill-rule="nonzero"/><path fill="#2b2326" d="M 505.800781 121.820312 C 507.1875 127.199219 508.277344 132.574219 509.121094 137.648438 C 509.484375 139.640625 509 141.691406 507.851562 143.324219 C 506.644531 144.953125 504.832031 146.101562 502.839844 146.34375 C 502.476562 146.34375 502.113281 146.40625 501.75 146.40625 C 498.125 146.40625 494.984375 143.867188 494.320312 140.183594 C 493.535156 135.351562 492.507812 130.460938 491.238281 125.507812 C 490.753906 123.574219 491.058594 121.582031 492.023438 119.890625 C 493.050781 118.136719 494.621094 116.929688 496.554688 116.386719 C 498.488281 115.84375 500.542969 116.144531 502.292969 117.171875 C 504.046875 118.199219 505.253906 119.828125 505.738281 121.820312 Z M 505.800781 121.820312 " fill-opacity="1" fill-rule="nonzero"/><path fill="#2b2326" d="M 512.265625 170.382812 C 512.382812 172.375 511.660156 174.308594 510.332031 175.820312 C 509 177.328125 507.128906 178.175781 505.132812 178.292969 C 505.015625 178.292969 504.894531 178.292969 504.773438 178.292969 C 500.785156 178.292969 497.460938 175.152344 497.28125 171.167969 C 496.976562 165.492188 496.617188 160.476562 496.191406 155.828125 C 495.832031 151.78125 498.910156 148.09375 502.960938 147.734375 C 504.953125 147.550781 506.945312 148.15625 508.519531 149.425781 C 510.089844 150.691406 510.996094 152.566406 511.175781 154.558594 C 511.597656 159.390625 511.960938 164.523438 512.265625 170.382812 Z M 512.265625 170.382812 " fill-opacity="1" fill-rule="nonzero"/><path fill="#2b2326" d="M 513.230469 202.695312 C 513.230469 204.6875 512.503906 206.621094 511.054688 208.070312 C 509.664062 209.519531 507.792969 210.304688 505.738281 210.304688 C 501.628906 210.304688 498.246094 206.984375 498.1875 202.878906 C 498.1875 197.382812 498.003906 192.003906 497.882812 187.476562 C 497.761719 183.367188 501.027344 179.867188 505.132812 179.746094 C 507.128906 179.746094 509.0625 180.410156 510.511719 181.796875 C 511.960938 183.1875 512.808594 185.058594 512.867188 187.054688 C 512.988281 191.644531 513.109375 197.140625 513.171875 202.757812 Z M 513.230469 202.695312 " fill-opacity="1" fill-rule="nonzero"/><path fill="#2b2326" d="M 510.570312 240.265625 C 509.183594 241.59375 507.308594 242.316406 505.375 242.316406 C 503.441406 242.316406 505.195312 242.316406 505.132812 242.316406 C 501.027344 242.195312 497.761719 238.753906 497.824219 234.648438 C 497.945312 229.390625 498.066406 224.199219 498.125 219.183594 C 498.125 215.078125 501.507812 211.757812 505.617188 211.757812 C 507.613281 211.757812 509.484375 212.542969 510.933594 213.992188 C 512.324219 215.441406 513.109375 217.3125 513.109375 219.367188 C 513.109375 224.5 512.988281 229.753906 512.808594 235.070312 C 512.808594 237.0625 511.960938 238.9375 510.453125 240.324219 Z M 510.570312 240.265625 " fill-opacity="1" fill-rule="nonzero"/><path fill="#2b2326" d="M 509 272.457031 C 507.613281 273.664062 505.859375 274.328125 504.046875 274.328125 C 502.234375 274.328125 503.746094 274.328125 503.5625 274.328125 C 499.457031 274.085938 496.253906 270.523438 496.496094 266.417969 C 496.855469 260.859375 497.097656 255.242188 497.28125 250.953125 C 497.460938 246.847656 500.964844 243.585938 505.074219 243.765625 C 507.066406 243.828125 508.941406 244.734375 510.269531 246.183594 C 511.660156 247.632812 512.324219 249.566406 512.265625 251.621094 C 512.082031 256.210938 511.78125 261.707031 511.476562 267.261719 C 511.359375 269.253906 510.453125 271.128906 508.941406 272.457031 Z M 509 272.457031 " fill-opacity="1" fill-rule="nonzero"/><path fill="#2b2326" d="M 509.847656 291.601562 L 509.183594 299.394531 C 509 301.386719 508.09375 303.199219 506.523438 304.527344 C 505.132812 305.675781 503.441406 306.28125 501.691406 306.28125 C 499.9375 306.28125 501.207031 306.28125 500.964844 306.28125 C 496.855469 305.917969 493.835938 302.234375 494.136719 298.125 L 494.804688 290.394531 L 495.40625 282.664062 C 495.710938 278.558594 499.335938 275.476562 503.441406 275.71875 C 505.4375 275.839844 507.25 276.804688 508.578125 278.316406 C 509.90625 279.824219 510.511719 281.757812 510.390625 283.8125 L 509.785156 291.664062 Z M 509.847656 291.601562 " fill-opacity="1" fill-rule="nonzero"/><path fill="#2b2326" d="M 506.222656 327.601562 L 505.800781 331.527344 C 505.316406 335.332031 502.054688 338.109375 498.308594 338.109375 C 494.5625 338.109375 497.703125 338.109375 497.402344 338.109375 C 495.40625 337.867188 493.65625 336.84375 492.386719 335.273438 C 491.179688 333.703125 490.632812 331.769531 490.875 329.777344 L 491.296875 325.847656 C 491.722656 322.105469 492.207031 318.238281 492.566406 314.375 C 492.992188 310.265625 496.675781 307.246094 500.785156 307.667969 C 502.777344 307.851562 504.589844 308.816406 505.859375 310.386719 C 507.128906 311.957031 507.734375 313.890625 507.492188 315.882812 C 507.128906 319.808594 506.644531 323.734375 506.222656 327.601562 Z M 506.222656 327.601562 " fill-opacity="1" fill-rule="nonzero"/><path fill="#2b2326" d="M 502.113281 359.070312 C 501.871094 360.519531 501.691406 361.96875 501.449219 363.476562 C 501.148438 365.472656 500.121094 367.222656 498.488281 368.429688 C 497.160156 369.398438 495.648438 369.878906 494.019531 369.878906 C 492.386719 369.878906 493.230469 369.878906 492.871094 369.820312 C 488.820312 369.214844 485.980469 365.351562 486.585938 361.304688 C 486.765625 359.855469 487.007812 358.40625 487.191406 356.953125 C 487.734375 353.332031 488.277344 349.648438 488.761719 345.960938 C 489.304688 341.855469 493.109375 338.957031 497.21875 339.5 C 499.214844 339.742188 500.964844 340.769531 502.175781 342.398438 C 503.382812 343.96875 503.925781 345.960938 503.683594 347.957031 C 503.199219 351.699219 502.65625 355.445312 502.113281 359.128906 Z M 502.113281 359.070312 " fill-opacity="1" fill-rule="nonzero"/><path fill="#2b2326" d="M 497.644531 387.578125 L 496.253906 395.246094 C 495.890625 397.242188 494.804688 398.933594 493.171875 400.078125 C 491.902344 400.984375 490.453125 401.410156 488.882812 401.410156 C 487.3125 401.410156 487.976562 401.410156 487.492188 401.289062 C 483.445312 400.5625 480.726562 396.636719 481.449219 392.589844 L 482.78125 384.980469 L 484.046875 377.308594 C 484.714844 373.261719 488.578125 370.484375 492.6875 371.148438 C 494.683594 371.449219 496.433594 372.539062 497.582031 374.167969 C 498.730469 375.800781 499.214844 377.792969 498.910156 379.785156 L 497.644531 387.515625 Z M 497.644531 387.578125 " fill-opacity="1" fill-rule="nonzero"/><path fill="#2b2326" d="M 492.386719 415.785156 C 491.660156 419.40625 490.9375 423.210938 490.089844 426.898438 C 489.667969 428.890625 488.519531 430.582031 486.828125 431.667969 C 485.621094 432.453125 484.167969 432.875 482.78125 432.875 C 481.390625 432.875 481.753906 432.875 481.210938 432.695312 C 477.160156 431.847656 474.5625 427.863281 475.410156 423.816406 C 476.195312 420.191406 476.917969 416.449219 477.644531 412.882812 C 477.945312 411.496094 478.1875 410.046875 478.492188 408.65625 C 479.335938 404.609375 483.261719 401.953125 487.3125 402.738281 C 489.304688 403.097656 490.996094 404.246094 492.144531 405.9375 C 493.292969 407.628906 493.65625 409.621094 493.292969 411.554688 C 492.992188 412.945312 492.75 414.394531 492.445312 415.785156 Z M 492.386719 415.785156 " fill-opacity="1" fill-rule="nonzero"/><path fill="#2b2326" d="M 482.960938 458.425781 C 482.476562 460.359375 481.269531 462.050781 479.578125 463.074219 C 478.371094 463.800781 477.039062 464.164062 475.652344 464.164062 C 474.261719 464.164062 474.441406 464.101562 473.839844 463.921875 C 469.851562 462.953125 467.375 458.90625 468.339844 454.863281 L 470.152344 447.3125 C 470.695312 444.894531 471.300781 442.359375 471.90625 439.820312 C 472.8125 435.773438 476.796875 433.238281 480.847656 434.144531 C 484.894531 435.050781 487.433594 439.097656 486.527344 443.082031 C 485.921875 445.742188 485.316406 448.339844 484.773438 450.753906 L 482.960938 458.363281 Z M 482.960938 458.425781 " fill-opacity="1" fill-rule="nonzero"/><path fill="#2b2326" d="M 473.535156 465.308594 C 475.46875 465.792969 477.101562 467.0625 478.128906 468.753906 C 479.15625 470.503906 479.457031 472.496094 478.914062 474.492188 L 478.371094 476.542969 C 477.222656 480.832031 476.074219 485.300781 474.863281 489.652344 C 474.320312 491.582031 473.050781 493.214844 471.300781 494.179688 C 470.152344 494.84375 468.882812 495.148438 467.613281 495.148438 C 466.347656 495.148438 466.285156 495.027344 465.621094 494.84375 C 461.632812 493.757812 459.277344 489.589844 460.363281 485.605469 C 461.574219 481.253906 462.722656 476.847656 463.871094 472.558594 L 464.351562 470.6875 C 465.378906 466.699219 469.488281 464.285156 473.476562 465.308594 Z M 473.535156 465.308594 " fill-opacity="1" fill-rule="nonzero"/><path fill="#2b2326" d="M 469.308594 509.402344 L 465.921875 520.574219 C 465.320312 522.507812 464.050781 524.078125 462.296875 525.046875 C 461.210938 525.648438 460.003906 525.949219 458.792969 525.949219 C 457.585938 525.949219 457.285156 525.832031 456.558594 525.589844 C 452.632812 524.378906 450.394531 520.152344 451.605469 516.226562 L 454.988281 505.113281 L 456.074219 501.367188 C 457.222656 497.382812 461.390625 495.085938 465.378906 496.234375 C 467.3125 496.777344 468.882812 498.046875 469.910156 499.859375 C 470.878906 501.609375 471.121094 503.664062 470.574219 505.597656 L 469.488281 509.402344 Z M 469.308594 509.402344 " fill-opacity="1" fill-rule="nonzero"/><path fill="#2b2326" d="M 446.347656 555.96875 C 444.476562 555.304688 442.902344 553.976562 442.058594 552.164062 C 441.152344 550.351562 441.03125 548.296875 441.695312 546.425781 C 442.421875 544.371094 443.085938 542.257812 443.808594 540.203125 L 446.648438 531.75 C 447.980469 527.882812 452.207031 525.710938 456.074219 526.976562 C 457.949219 527.582031 459.578125 528.972656 460.484375 530.722656 C 461.390625 532.535156 461.574219 534.585938 460.910156 536.460938 L 458.070312 544.976562 C 457.34375 547.089844 456.679688 549.265625 455.894531 551.378906 C 454.804688 554.460938 451.90625 556.453125 448.765625 556.453125 C 445.621094 556.453125 447.132812 556.332031 446.289062 556.03125 Z M 446.347656 555.96875 " fill-opacity="1" fill-rule="nonzero"/><path fill="#2b2326" d="M 436.320312 561.828125 C 437.707031 557.960938 442.058594 555.910156 445.925781 557.296875 C 447.796875 557.960938 449.308594 559.351562 450.214844 561.164062 C 451.0625 562.976562 451.179688 565.027344 450.457031 566.902344 L 447.796875 574.332031 L 445.019531 581.636719 C 444.292969 583.511719 442.902344 585.019531 441.089844 585.867188 C 440.125 586.289062 439.097656 586.53125 438.011719 586.53125 C 436.921875 586.53125 436.199219 586.351562 435.351562 586.046875 C 431.484375 584.597656 429.550781 580.25 431 576.382812 L 433.722656 569.195312 L 436.378906 561.886719 Z M 436.320312 561.828125 " fill-opacity="1" fill-rule="nonzero"/><path fill="#2b2326" d="M 423.207031 615.703125 C 420.246094 614.433594 418.496094 611.535156 418.617188 608.515625 C 417.40625 609.363281 415.898438 609.84375 414.328125 609.84375 C 412.753906 609.84375 413.902344 609.84375 413.660156 609.84375 C 411.96875 609.664062 410.277344 609.484375 408.585938 609.300781 C 407.679688 609.179688 406.773438 609.121094 405.867188 609 C 404.960938 608.878906 404.054688 608.816406 403.148438 608.699219 C 401.457031 608.515625 399.765625 608.335938 398.074219 608.09375 C 393.964844 607.550781 391.066406 603.746094 391.609375 599.699219 C 391.851562 597.703125 392.878906 595.894531 394.507812 594.683594 C 396.082031 593.476562 398.015625 592.933594 400.007812 593.175781 C 401.640625 593.355469 403.269531 593.539062 404.839844 593.71875 C 405.746094 593.839844 406.652344 593.898438 407.558594 594.019531 C 408.464844 594.140625 409.371094 594.203125 410.277344 594.324219 C 411.910156 594.503906 413.480469 594.683594 415.113281 594.867188 C 417.105469 595.046875 418.917969 596.011719 420.1875 597.523438 C 420.851562 598.308594 421.335938 599.214844 421.578125 600.121094 C 422.726562 597.28125 423.933594 594.441406 425.019531 591.605469 C 426.53125 587.738281 430.882812 585.867188 434.746094 587.375 C 436.621094 588.101562 438.070312 589.550781 438.855469 591.363281 C 439.582031 593.113281 439.703125 594.988281 439.097656 596.796875 L 446.46875 597.160156 C 450.578125 597.34375 453.78125 600.84375 453.597656 605.011719 C 453.539062 607.007812 452.632812 608.878906 451.179688 610.207031 C 449.792969 611.476562 447.980469 612.199219 446.105469 612.199219 C 444.234375 612.199219 445.863281 612.199219 445.742188 612.199219 L 441.878906 612.019531 L 433.175781 611.476562 C 433.175781 611.535156 433.117188 611.65625 433.054688 611.71875 C 432.269531 613.589844 430.820312 615.039062 428.949219 615.824219 C 428.042969 616.1875 427.074219 616.367188 426.109375 616.367188 C 425.140625 616.367188 424.113281 616.1875 423.207031 615.765625 Z M 423.207031 615.703125 " fill-opacity="1" fill-rule="nonzero"/><path fill="#2b2326" d="M 410.21875 644.9375 C 406.472656 643.246094 404.839844 638.777344 406.53125 635.03125 C 407.257812 633.339844 408.042969 631.710938 408.769531 630.019531 C 410.15625 627 411.488281 623.917969 412.816406 620.898438 C 413.601562 619.027344 415.050781 617.636719 416.925781 616.910156 C 418.796875 616.1875 420.851562 616.1875 422.664062 616.972656 C 426.46875 618.601562 428.222656 623.074219 426.589844 626.878906 C 425.261719 629.957031 423.871094 633.039062 422.484375 636.117188 C 421.757812 637.808594 420.972656 639.5 420.246094 641.191406 C 419.402344 643.003906 417.953125 644.453125 416.019531 645.117188 C 415.171875 645.421875 414.265625 645.601562 413.359375 645.601562 C 412.273438 645.601562 411.246094 645.359375 410.21875 644.9375 Z M 410.21875 644.9375 " fill-opacity="1" fill-rule="nonzero"/><path fill="#2b2326" d="M 396.203125 673.746094 C 394.390625 672.839844 393.058594 671.269531 392.457031 669.398438 C 391.851562 667.527344 391.972656 665.472656 392.878906 663.660156 C 394.390625 660.699219 395.839844 657.679688 397.289062 654.660156 C 398.074219 653.03125 398.859375 651.339844 399.707031 649.707031 C 401.519531 646.023438 405.988281 644.453125 409.675781 646.203125 C 411.488281 647.050781 412.875 648.621094 413.542969 650.492188 C 414.207031 652.425781 414.085938 654.417969 413.238281 656.230469 C 412.453125 657.863281 411.609375 659.554688 410.824219 661.183594 C 409.371094 664.203125 407.863281 667.285156 406.351562 670.304688 C 405.023438 672.902344 402.363281 674.410156 399.585938 674.410156 C 396.804688 674.410156 397.289062 674.167969 396.203125 673.625 Z M 396.203125 673.746094 " fill-opacity="1" fill-rule="nonzero"/><path fill="#2b2326" d="M 377.59375 697.605469 C 377.050781 695.671875 377.230469 693.617188 378.195312 691.867188 L 378.863281 690.660156 C 379.222656 689.933594 379.648438 689.269531 380.007812 688.542969 L 385.445312 678.214844 C 387.378906 674.59375 391.910156 673.144531 395.597656 675.015625 C 397.410156 675.921875 398.679688 677.492188 399.28125 679.425781 C 399.886719 681.355469 399.707031 683.410156 398.738281 685.164062 L 393.300781 695.550781 C 392.878906 696.335938 392.457031 697.121094 392.03125 697.847656 L 391.367188 699.054688 C 389.976562 701.53125 387.441406 702.980469 384.722656 702.980469 C 383.511719 702.980469 382.304688 702.679688 381.15625 702.074219 C 379.40625 701.109375 378.136719 699.539062 377.53125 697.605469 Z M 377.59375 697.605469 " fill-opacity="1" fill-rule="nonzero"/><path fill="#2b2326" d="M 362.546875 719.53125 C 364.359375 716.449219 366.171875 713.308594 367.867188 710.289062 C 368.652344 708.898438 369.4375 707.511719 370.222656 706.179688 C 372.277344 702.617188 376.867188 701.347656 380.433594 703.34375 C 382.183594 704.308594 383.453125 705.941406 383.996094 707.871094 C 384.539062 709.804688 384.296875 711.859375 383.273438 713.609375 C 382.484375 715 381.699219 716.328125 380.914062 717.71875 C 379.164062 720.859375 377.289062 724.058594 375.417969 727.199219 C 374.390625 728.953125 372.757812 730.160156 370.824219 730.644531 C 370.222656 730.824219 369.558594 730.882812 368.953125 730.882812 C 367.625 730.882812 366.292969 730.523438 365.144531 729.859375 C 361.582031 727.742188 360.375 723.152344 362.488281 719.589844 Z M 362.546875 719.53125 " fill-opacity="1" fill-rule="nonzero"/><path fill="#2b2326" d="M 345.992188 746.648438 C 348.167969 743.265625 350.285156 739.824219 352.335938 736.441406 L 354.152344 733.542969 C 356.324219 730.039062 360.917969 728.890625 364.480469 731.066406 C 366.171875 732.09375 367.382812 733.785156 367.867188 735.714844 C 368.347656 737.648438 368.046875 739.703125 366.960938 741.394531 L 365.148438 744.351562 C 363.03125 747.734375 360.855469 751.300781 358.683594 754.679688 C 357.59375 756.371094 355.902344 757.582031 353.96875 758.003906 C 353.425781 758.125 352.882812 758.183594 352.339844 758.183594 C 350.949219 758.183594 349.5 757.761719 348.289062 756.976562 C 344.785156 754.742188 343.757812 750.089844 345.996094 746.589844 Z M 345.992188 746.648438 " fill-opacity="1" fill-rule="nonzero"/><path fill="#2b2326" d="M 328.472656 773.164062 C 330.890625 769.722656 333.246094 766.15625 335.480469 762.714844 L 337.050781 760.359375 C 339.347656 756.917969 344 755.949219 347.445312 758.246094 C 349.136719 759.332031 350.285156 761.023438 350.707031 763.015625 C 351.128906 765.007812 350.707031 767.003906 349.617188 768.695312 L 348.046875 771.050781 C 345.691406 774.550781 343.273438 778.238281 340.796875 781.738281 C 339.648438 783.371094 337.957031 784.519531 335.964844 784.878906 C 335.480469 784.941406 335.058594 785 334.574219 785 C 333.066406 785 331.613281 784.519531 330.347656 783.671875 C 326.960938 781.316406 326.117188 776.605469 328.414062 773.222656 Z M 328.472656 773.164062 " fill-opacity="1" fill-rule="nonzero"/><path fill="#2b2326" d="M 310.046875 799.015625 C 312.402344 795.8125 314.757812 792.492188 317.054688 789.351562 L 319.109375 786.511719 C 321.523438 783.191406 326.238281 782.40625 329.558594 784.761719 C 331.191406 785.90625 332.277344 787.660156 332.640625 789.652344 C 333.003906 791.644531 332.519531 793.640625 331.3125 795.269531 L 329.257812 798.109375 C 326.902344 801.371094 324.546875 804.691406 322.070312 807.953125 C 320.859375 809.585938 319.109375 810.609375 317.113281 810.914062 C 316.753906 810.914062 316.328125 810.972656 315.964844 810.972656 C 314.394531 810.972656 312.824219 810.488281 311.496094 809.523438 C 308.171875 807.046875 307.449219 802.335938 309.925781 799.015625 Z M 310.046875 799.015625 " fill-opacity="1" fill-rule="nonzero"/><path fill="#2b2326" d="M 289.441406 830.121094 C 289.203125 828.125 289.683594 826.132812 290.894531 824.5625 C 292.464844 822.507812 294.035156 820.457031 295.546875 818.402344 L 300.195312 812.179688 C 302.675781 808.859375 307.386719 808.195312 310.710938 810.671875 C 312.339844 811.878906 313.367188 813.628906 313.671875 815.625 C 313.972656 817.617188 313.429688 819.609375 312.21875 821.179688 L 307.566406 827.402344 C 305.996094 829.515625 304.425781 831.570312 302.796875 833.683594 C 301.34375 835.617188 299.050781 836.644531 296.8125 836.644531 C 294.578125 836.644531 293.613281 836.160156 292.28125 835.074219 C 290.710938 833.863281 289.683594 832.113281 289.382812 830.121094 Z M 289.441406 830.121094 " fill-opacity="1" fill-rule="nonzero"/><path fill="#2b2326" d="M 269.746094 855.304688 C 269.503906 853.3125 270.109375 851.378906 271.316406 849.808594 C 273.433594 847.152344 275.488281 844.554688 277.539062 841.898438 C 278.628906 840.449219 279.777344 839.058594 280.863281 837.609375 C 283.402344 834.347656 288.113281 833.742188 291.375 836.28125 C 292.945312 837.488281 293.972656 839.300781 294.214844 841.292969 C 294.457031 843.285156 293.914062 845.28125 292.644531 846.851562 C 291.496094 848.300781 290.410156 849.6875 289.261719 851.136719 C 287.148438 853.796875 285.09375 856.515625 282.976562 859.171875 C 281.46875 861.042969 279.292969 862.011719 277.117188 862.011719 C 274.941406 862.011719 273.792969 861.46875 272.464844 860.378906 C 270.894531 859.109375 269.929688 857.359375 269.6875 855.367188 Z M 269.746094 855.304688 " fill-opacity="1" fill-rule="nonzero"/><path fill="#2b2326" d="M 249.566406 880.007812 C 249.386719 878.015625 249.988281 876.082031 251.257812 874.574219 L 261.105469 862.554688 C 263.703125 859.414062 268.476562 858.929688 271.621094 861.464844 C 273.191406 862.734375 274.15625 864.546875 274.398438 866.539062 C 274.582031 868.535156 274.035156 870.527344 272.707031 872.035156 L 262.738281 884.175781 C 261.226562 885.929688 259.113281 886.835938 256.9375 886.835938 C 255.246094 886.835938 253.554688 886.289062 252.105469 885.082031 C 250.535156 883.8125 249.628906 882.003906 249.445312 880.007812 Z M 249.566406 880.007812 " fill-opacity="1" fill-rule="nonzero"/><path fill="#2b2326" d="M 230.597656 898.792969 L 240.746094 887.074219 C 242.015625 885.566406 243.828125 884.597656 245.820312 884.417969 C 247.816406 884.238281 249.75 884.902344 251.320312 886.171875 C 254.460938 888.828125 254.882812 893.597656 252.164062 896.800781 L 241.953125 908.578125 C 240.625 910.089844 238.8125 911.054688 236.820312 911.175781 C 236.636719 911.175781 236.457031 911.175781 236.273438 911.175781 C 234.460938 911.175781 232.710938 910.511719 231.320312 909.300781 C 228.238281 906.585938 227.9375 901.875 230.597656 898.734375 Z M 230.597656 898.792969 " fill-opacity="1" fill-rule="nonzero"/><path fill="#2b2326" d="M 209.269531 922.347656 L 214.523438 916.671875 C 215.070312 916.066406 215.613281 915.464844 216.15625 914.859375 C 217.304688 913.589844 218.511719 912.261719 219.71875 910.933594 C 221.050781 909.421875 222.921875 908.578125 224.917969 908.457031 C 226.910156 908.335938 228.84375 909 230.355469 910.390625 C 233.4375 913.167969 233.675781 917.941406 230.957031 920.960938 C 229.75 922.347656 228.480469 923.738281 227.273438 925.007812 C 226.730469 925.609375 226.183594 926.152344 225.640625 926.757812 L 220.324219 932.496094 C 218.933594 934.003906 217.121094 934.851562 215.070312 934.910156 C 214.949219 934.910156 214.886719 934.910156 214.765625 934.910156 C 212.832031 934.910156 211.082031 934.1875 209.632812 932.917969 C 206.609375 930.078125 206.429688 925.367188 209.207031 922.289062 Z M 209.269531 922.347656 " fill-opacity="1" fill-rule="nonzero"/><path fill="#2b2326" d="M 187.277344 945.300781 L 195.433594 937.085938 L 198.089844 934.246094 C 199.480469 932.796875 201.355469 931.953125 203.347656 931.953125 C 205.339844 931.953125 207.273438 932.617188 208.726562 934.003906 C 211.746094 936.84375 211.804688 941.617188 208.964844 944.636719 L 206.1875 947.535156 L 197.96875 955.871094 C 196.582031 957.320312 194.648438 958.105469 192.652344 958.105469 C 190.660156 958.105469 188.785156 957.320312 187.335938 955.929688 C 184.4375 953.03125 184.4375 948.261719 187.335938 945.300781 Z M 187.277344 945.300781 " fill-opacity="1" fill-rule="nonzero"/><path fill="#2b2326" d="M 164.4375 967.347656 L 166.492188 965.414062 C 169.511719 962.574219 172.65625 959.675781 175.617188 956.714844 C 178.578125 953.816406 183.347656 953.878906 186.25 956.835938 C 187.640625 958.285156 188.425781 960.160156 188.363281 962.152344 C 188.363281 964.144531 187.519531 966.015625 186.128906 967.40625 C 183.046875 970.488281 179.84375 973.445312 176.703125 976.34375 L 174.648438 978.277344 C 173.257812 979.605469 171.445312 980.332031 169.511719 980.332031 C 167.582031 980.332031 169.332031 980.332031 169.210938 980.332031 C 167.21875 980.269531 165.34375 979.425781 163.957031 977.914062 C 161.175781 974.894531 161.296875 970.125 164.316406 967.285156 Z M 164.4375 967.347656 " fill-opacity="1" fill-rule="nonzero"/><path fill="#2b2326" d="M 139.910156 998.996094 C 137.25 995.855469 137.613281 991.082031 140.753906 988.425781 L 146.613281 983.410156 C 147.824219 982.324219 149.09375 981.238281 150.300781 980.152344 C 150.964844 979.546875 151.691406 978.882812 152.355469 978.277344 C 155.4375 975.5 160.210938 975.800781 162.929688 978.882812 C 164.257812 980.390625 164.921875 982.324219 164.859375 984.316406 C 164.742188 986.3125 163.894531 988.183594 162.324219 989.511719 C 161.660156 990.117188 160.933594 990.71875 160.269531 991.324219 C 159 992.472656 157.730469 993.621094 156.402344 994.765625 L 150.480469 999.839844 C 149.09375 1000.988281 147.402344 1001.652344 145.589844 1001.652344 C 143.777344 1001.652344 145.164062 1001.652344 144.984375 1001.652344 C 142.988281 1001.472656 141.175781 1000.566406 139.847656 998.996094 Z M 139.910156 998.996094 " fill-opacity="1" fill-rule="nonzero"/><path fill="#2b2326" d="M 116.226562 1008.417969 L 122.328125 1003.707031 L 128.308594 998.875 C 131.511719 996.277344 136.222656 996.761719 138.882812 999.960938 C 140.152344 1001.53125 140.753906 1003.464844 140.574219 1005.457031 C 140.390625 1007.449219 139.425781 1009.261719 137.855469 1010.53125 L 131.753906 1015.484375 L 125.46875 1020.375 C 124.140625 1021.402344 122.507812 1021.945312 120.878906 1021.945312 C 119.246094 1021.945312 120.210938 1021.945312 119.910156 1021.886719 C 117.917969 1021.644531 116.164062 1020.617188 114.957031 1018.988281 C 112.417969 1015.726562 113.082031 1011.015625 116.347656 1008.476562 Z M 116.226562 1008.417969 " fill-opacity="1" fill-rule="nonzero"/><g clip-path="url(#78f832e867)"><path fill="#2b2326" d="M 90.730469 1027.082031 L 94.65625 1024.363281 C 95.441406 1023.820312 96.226562 1023.273438 97.011719 1022.730469 L 103.296875 1018.140625 C 106.617188 1015.726562 111.332031 1016.449219 113.808594 1019.773438 C 115.015625 1021.402344 115.5 1023.394531 115.199219 1025.328125 C 114.894531 1027.320312 113.808594 1029.074219 112.175781 1030.28125 L 105.894531 1034.871094 C 104.988281 1035.535156 104.082031 1036.140625 103.234375 1036.746094 L 99.308594 1039.460938 C 98.039062 1040.308594 96.589844 1040.789062 95.078125 1040.789062 C 93.566406 1040.789062 94.171875 1040.789062 93.6875 1040.671875 C 91.695312 1040.308594 90.003906 1039.160156 88.855469 1037.53125 C 86.5 1034.085938 87.40625 1029.4375 90.789062 1027.082031 Z M 90.730469 1027.082031 " fill-opacity="1" fill-rule="nonzero"/></g></g></g></g></svg>